<?xml version="1.0" standalone="no"?>
<!DOCTYPE svg PUBLIC "-//W3C//DTD SVG 1.1//EN" 
  "http://www.w3.org/Graphics/SVG/1.1/DTD/svg11.dtd">
<svg x="10px" y="10px" height="1000px" version="1.1"
     xmlns="http://www.w3.org/2000/svg">
<rect x="130px" y="80px" width="10px"
       height="10px" stroke="blue" fill="white"/>
<rect x="130px" y="70px" width="10px"
       height="10px" stroke="blue" fill="white"/>
<rect x="130px" y="60px" width="10px"
       height="10px" stroke="blue" fill="white"/>
<rect x="130px" y="50px" width="10px"
       height="10px" stroke="blue" fill="white"/>
<rect x="130px" y="40px" width="10px"
       height="10px" stroke="blue" fill="white"/>
<rect x="130px" y="30px" width="10px"
       height="10px" stroke="blue" fill="white"/>
<rect x="130px" y="20px" width="10px"
       height="10px" stroke="blue" fill="white"/>
<rect x="130px" y="10px" width="10px"
       height="10px" stroke="blue" fill="white"/>
<rect x="130px" y="0px" width="10px"
       height="10px" stroke="blue" fill="black"/>
<rect x="120px" y="80px" width="10px"
       height="10px" stroke="blue" fill="white"/>
<rect x="120px" y="70px" width="10px"
       height="10px" stroke="blue" fill="white"/>
<rect x="120px" y="60px" width="10px"
       height="10px" stroke="blue" fill="white"/>
<rect x="120px" y="50px" width="10px"
       height="10px" stroke="blue" fill="white"/>
<rect x="120px" y="40px" width="10px"
       height="10px" stroke="blue" fill="white"/>
<rect x="120px" y="30px" width="10px"
       height="10px" stroke="blue" fill="black"/>
<rect x="120px" y="20px" width="10px"
       height="10px" stroke="blue" fill="black"/>
<rect x="120px" y="10px" width="10px"
       height="10px" stroke="blue" fill="black"/>
<rect x="120px" y="0px" width="10px"
       height="10px" stroke="blue" fill="black"/>
<rect x="110px" y="80px" width="10px"
       height="10px" stroke="blue" fill="white"/>
<rect x="110px" y="70px" width="10px"
       height="10px" stroke="blue" fill="white"/>
<rect x="110px" y="60px" width="10px"
       height="10px" stroke="blue" fill="black"/>
<rect x="110px" y="50px" width="10px"
       height="10px" stroke="blue" fill="black"/>
<rect x="110px" y="40px" width="10px"
       height="10px" stroke="blue" fill="black"/>
<rect x="110px" y="30px" width="10px"
       height="10px" stroke="blue" fill="black"/>
<rect x="110px" y="20px" width="10px"
       height="10px" stroke="blue" fill="black"/>
<rect x="110px" y="10px" width="10px"
       height="10px" stroke="blue" fill="black"/>
<rect x="110px" y="0px" width="10px"
       height="10px" stroke="blue" fill="white"/>
<rect x="100px" y="80px" width="10px"
       height="10px" stroke="blue" fill="black"/>
<rect x="100px" y="70px" width="10px"
       height="10px" stroke="blue" fill="black"/>
<rect x="100px" y="60px" width="10px"
       height="10px" stroke="blue" fill="black"/>
<rect x="100px" y="50px" width="10px"
       height="10px" stroke="blue" fill="black"/>
<rect x="100px" y="40px" width="10px"
       height="10px" stroke="blue" fill="black"/>
<rect x="100px" y="30px" width="10px"
       height="10px" stroke="blue" fill="white"/>
<rect x="100px" y="20px" width="10px"
       height="10px" stroke="blue" fill="white"/>
<rect x="100px" y="10px" width="10px"
       height="10px" stroke="blue" fill="white"/>
<rect x="100px" y="0px" width="10px"
       height="10px" stroke="blue" fill="white"/>
<rect x="90px" y="80px" width="10px"
       height="10px" stroke="blue" fill="black"/>
<rect x="90px" y="70px" width="10px"
       height="10px" stroke="blue" fill="black"/>
<rect x="90px" y="60px" width="10px"
       height="10px" stroke="blue" fill="black"/>
<rect x="90px" y="50px" width="10px"
       height="10px" stroke="blue" fill="white"/>
<rect x="90px" y="40px" width="10px"
       height="10px" stroke="blue" fill="white"/>
<rect x="90px" y="30px" width="10px"
       height="10px" stroke="blue" fill="white"/>
<rect x="90px" y="20px" width="10px"
       height="10px" stroke="blue" fill="white"/>
<rect x="90px" y="10px" width="10px"
       height="10px" stroke="blue" fill="white"/>
<rect x="90px" y="0px" width="10px"
       height="10px" stroke="blue" fill="white"/>
<rect x="80px" y="80px" width="10px"
       height="10px" stroke="blue" fill="white"/>
<rect x="80px" y="70px" width="10px"
       height="10px" stroke="blue" fill="black"/>
<rect x="80px" y="60px" width="10px"
       height="10px" stroke="blue" fill="black"/>
<rect x="80px" y="50px" width="10px"
       height="10px" stroke="blue" fill="black"/>
<rect x="80px" y="40px" width="10px"
       height="10px" stroke="blue" fill="black"/>
<rect x="80px" y="30px" width="10px"
       height="10px" stroke="blue" fill="black"/>
<rect x="80px" y="20px" width="10px"
       height="10px" stroke="blue" fill="black"/>
<rect x="80px" y="10px" width="10px"
       height="10px" stroke="blue" fill="white"/>
<rect x="80px" y="0px" width="10px"
       height="10px" stroke="blue" fill="white"/>
<rect x="70px" y="80px" width="10px"
       height="10px" stroke="blue" fill="white"/>
<rect x="70px" y="70px" width="10px"
       height="10px" stroke="blue" fill="white"/>
<rect x="70px" y="60px" width="10px"
       height="10px" stroke="blue" fill="black"/>
<rect x="70px" y="50px" width="10px"
       height="10px" stroke="blue" fill="black"/>
<rect x="70px" y="40px" width="10px"
       height="10px" stroke="blue" fill="black"/>
<rect x="70px" y="30px" width="10px"
       height="10px" stroke="blue" fill="black"/>
<rect x="70px" y="20px" width="10px"
       height="10px" stroke="blue" fill="black"/>
<rect x="70px" y="10px" width="10px"
       height="10px" stroke="blue" fill="black"/>
<rect x="70px" y="0px" width="10px"
       height="10px" stroke="blue" fill="white"/>
<rect x="60px" y="80px" width="10px"
       height="10px" stroke="blue" fill="white"/>
<rect x="60px" y="70px" width="10px"
       height="10px" stroke="blue" fill="black"/>
<rect x="60px" y="60px" width="10px"
       height="10px" stroke="blue" fill="black"/>
<rect x="60px" y="50px" width="10px"
       height="10px" stroke="blue" fill="black"/>
<rect x="60px" y="40px" width="10px"
       height="10px" stroke="blue" fill="white"/>
<rect x="60px" y="30px" width="10px"
       height="10px" stroke="blue" fill="white"/>
<rect x="60px" y="20px" width="10px"
       height="10px" stroke="blue" fill="white"/>
<rect x="60px" y="10px" width="10px"
       height="10px" stroke="blue" fill="white"/>
<rect x="60px" y="0px" width="10px"
       height="10px" stroke="blue" fill="white"/>
<rect x="50px" y="80px" width="10px"
       height="10px" stroke="blue" fill="black"/>
<rect x="50px" y="70px" width="10px"
       height="10px" stroke="blue" fill="black"/>
<rect x="50px" y="60px" width="10px"
       height="10px" stroke="blue" fill="black"/>
<rect x="50px" y="50px" width="10px"
       height="10px" stroke="blue" fill="black"/>
<rect x="50px" y="40px" width="10px"
       height="10px" stroke="blue" fill="white"/>
<rect x="50px" y="30px" width="10px"
       height="10px" stroke="blue" fill="white"/>
<rect x="50px" y="20px" width="10px"
       height="10px" stroke="blue" fill="white"/>
<rect x="50px" y="10px" width="10px"
       height="10px" stroke="blue" fill="white"/>
<rect x="50px" y="0px" width="10px"
       height="10px" stroke="blue" fill="white"/>
<rect x="40px" y="80px" width="10px"
       height="10px" stroke="blue" fill="black"/>
<rect x="40px" y="70px" width="10px"
       height="10px" stroke="blue" fill="black"/>
<rect x="40px" y="60px" width="10px"
       height="10px" stroke="blue" fill="black"/>
<rect x="40px" y="50px" width="10px"
       height="10px" stroke="blue" fill="black"/>
<rect x="40px" y="40px" width="10px"
       height="10px" stroke="blue" fill="black"/>
<rect x="40px" y="30px" width="10px"
       height="10px" stroke="blue" fill="white"/>
<rect x="40px" y="20px" width="10px"
       height="10px" stroke="blue" fill="white"/>
<rect x="40px" y="10px" width="10px"
       height="10px" stroke="blue" fill="white"/>
<rect x="40px" y="0px" width="10px"
       height="10px" stroke="blue" fill="white"/>
<rect x="30px" y="80px" width="10px"
       height="10px" stroke="blue" fill="white"/>
<rect x="30px" y="70px" width="10px"
       height="10px" stroke="blue" fill="black"/>
<rect x="30px" y="60px" width="10px"
       height="10px" stroke="blue" fill="black"/>
<rect x="30px" y="50px" width="10px"
       height="10px" stroke="blue" fill="black"/>
<rect x="30px" y="40px" width="10px"
       height="10px" stroke="blue" fill="black"/>
<rect x="30px" y="30px" width="10px"
       height="10px" stroke="blue" fill="black"/>
<rect x="30px" y="20px" width="10px"
       height="10px" stroke="blue" fill="black"/>
<rect x="30px" y="10px" width="10px"
       height="10px" stroke="blue" fill="black"/>
<rect x="30px" y="0px" width="10px"
       height="10px" stroke="blue" fill="white"/>
<rect x="20px" y="80px" width="10px"
       height="10px" stroke="blue" fill="white"/>
<rect x="20px" y="70px" width="10px"
       height="10px" stroke="blue" fill="white"/>
<rect x="20px" y="60px" width="10px"
       height="10px" stroke="blue" fill="white"/>
<rect x="20px" y="50px" width="10px"
       height="10px" stroke="blue" fill="black"/>
<rect x="20px" y="40px" width="10px"
       height="10px" stroke="blue" fill="black"/>
<rect x="20px" y="30px" width="10px"
       height="10px" stroke="blue" fill="black"/>
<rect x="20px" y="20px" width="10px"
       height="10px" stroke="blue" fill="black"/>
<rect x="20px" y="10px" width="10px"
       height="10px" stroke="blue" fill="black"/>
<rect x="20px" y="0px" width="10px"
       height="10px" stroke="blue" fill="white"/>
<rect x="10px" y="80px" width="10px"
       height="10px" stroke="blue" fill="white"/>
<rect x="10px" y="70px" width="10px"
       height="10px" stroke="blue" fill="white"/>
<rect x="10px" y="60px" width="10px"
       height="10px" stroke="blue" fill="white"/>
<rect x="10px" y="50px" width="10px"
       height="10px" stroke="blue" fill="white"/>
<rect x="10px" y="40px" width="10px"
       height="10px" stroke="blue" fill="white"/>
<rect x="10px" y="30px" width="10px"
       height="10px" stroke="blue" fill="black"/>
<rect x="10px" y="20px" width="10px"
       height="10px" stroke="blue" fill="black"/>
<rect x="10px" y="10px" width="10px"
       height="10px" stroke="blue" fill="black"/>
<rect x="10px" y="0px" width="10px"
       height="10px" stroke="blue" fill="white"/>
<rect x="0px" y="80px" width="10px"
       height="10px" stroke="blue" fill="white"/>
<rect x="0px" y="70px" width="10px"
       height="10px" stroke="blue" fill="white"/>
<rect x="0px" y="60px" width="10px"
       height="10px" stroke="blue" fill="white"/>
<rect x="0px" y="50px" width="10px"
       height="10px" stroke="blue" fill="white"/>
<rect x="0px" y="40px" width="10px"
       height="10px" stroke="blue" fill="white"/>
<rect x="0px" y="30px" width="10px"
       height="10px" stroke="blue" fill="white"/>
<rect x="0px" y="20px" width="10px"
       height="10px" stroke="blue" fill="white"/>
<rect x="0px" y="10px" width="10px"
       height="10px" stroke="blue" fill="black"/>
<rect x="0px" y="0px" width="10px"
       height="10px" stroke="blue" fill="white"/>
<polyline stroke="red" points="140,110 140,100"/>
    <polyline stroke="red" points="140,100 139,102 141,102 140,100"/><polyline stroke="red" points="140,100 130,100"/>
    <polyline stroke="red" points="130,100 132,101 132,99 130,100"/><polyline stroke="red" points="130,140 130,130"/>
    <polyline stroke="red" points="130,130 129,132 131,132 130,130"/><polyline stroke="red" points="130,130 130,120"/>
    <polyline stroke="red" points="130,120 129,122 131,122 130,120"/><polyline stroke="red" points="130,120 130,110"/>
    <polyline stroke="red" points="130,110 129,112 131,112 130,110"/><polyline stroke="red" points="130,110 140,110"/>
    <polyline stroke="red" points="140,110 138,111 138,109 140,110"/><polyline stroke="red" points="130,100 120,100"/>
    <polyline stroke="red" points="120,100 122,101 122,99 120,100"/><polyline stroke="red" points="120,170 120,160"/>
    <polyline stroke="red" points="120,160 119,162 121,162 120,160"/><polyline stroke="red" points="120,160 120,150"/>
    <polyline stroke="red" points="120,150 119,152 121,152 120,150"/><polyline stroke="red" points="120,150 120,140"/>
    <polyline stroke="red" points="120,140 119,142 121,142 120,140"/><polyline stroke="red" points="120,140 130,140"/>
    <polyline stroke="red" points="130,140 128,141 128,139 130,140"/><polyline stroke="red" points="120,110 110,110"/>
    <polyline stroke="red" points="110,110 112,111 112,109 110,110"/><polyline stroke="red" points="120,100 120,110"/>
    <polyline stroke="red" points="120,110 119,108 121,108 120,110"/><polyline stroke="red" points="110,190 110,180"/>
    <polyline stroke="red" points="110,180 109,182 111,182 110,180"/><polyline stroke="red" points="110,180 110,170"/>
    <polyline stroke="red" points="110,170 109,172 111,172 110,170"/><polyline stroke="red" points="110,170 120,170"/>
    <polyline stroke="red" points="120,170 118,171 118,169 120,170"/><polyline stroke="red" points="110,140 100,140"/>
    <polyline stroke="red" points="100,140 102,141 102,139 100,140"/><polyline stroke="red" points="110,130 110,140"/>
    <polyline stroke="red" points="110,140 109,138 111,138 110,140"/><polyline stroke="red" points="110,120 110,130"/>
    <polyline stroke="red" points="110,130 109,128 111,128 110,130"/><polyline stroke="red" points="110,110 110,120"/>
    <polyline stroke="red" points="110,120 109,118 111,118 110,120"/><polyline stroke="red" points="100,190 110,190"/>
    <polyline stroke="red" points="110,190 108,191 108,189 110,190"/><polyline stroke="red" points="100,160 90,160"/>
    <polyline stroke="red" points="90,160 92,161 92,159 90,160"/><polyline stroke="red" points="100,150 100,160"/>
    <polyline stroke="red" points="100,160 99,158 101,158 100,160"/><polyline stroke="red" points="100,140 100,150"/>
    <polyline stroke="red" points="100,150 99,148 101,148 100,150"/><polyline stroke="red" points="90,190 100,190"/>
    <polyline stroke="red" points="100,190 98,191 98,189 100,190"/><polyline stroke="red" points="90,180 90,190"/>
    <polyline stroke="red" points="90,190 89,188 91,188 90,190"/><polyline stroke="red" points="90,160 90,150"/>
    <polyline stroke="red" points="90,150 89,152 91,152 90,150"/><polyline stroke="red" points="90,150 90,140"/>
    <polyline stroke="red" points="90,140 89,142 91,142 90,140"/><polyline stroke="red" points="90,140 90,130"/>
    <polyline stroke="red" points="90,130 89,132 91,132 90,130"/><polyline stroke="red" points="90,130 90,120"/>
    <polyline stroke="red" points="90,120 89,122 91,122 90,120"/><polyline stroke="red" points="90,120 80,120"/>
    <polyline stroke="red" points="80,120 82,121 82,119 80,120"/><polyline stroke="red" points="80,180 90,180"/>
    <polyline stroke="red" points="90,180 88,181 88,179 90,180"/><polyline stroke="red" points="80,170 80,180"/>
    <polyline stroke="red" points="80,180 79,178 81,178 80,180"/><polyline stroke="red" points="80,120 80,110"/>
    <polyline stroke="red" points="80,110 79,112 81,112 80,110"/><polyline stroke="red" points="80,110 70,110"/>
    <polyline stroke="red" points="70,110 72,111 72,109 70,110"/><polyline stroke="red" points="70,180 70,170"/>
    <polyline stroke="red" points="70,170 69,172 71,172 70,170"/><polyline stroke="red" points="70,170 80,170"/>
    <polyline stroke="red" points="80,170 78,171 78,169 80,170"/><polyline stroke="red" points="70,150 60,150"/>
    <polyline stroke="red" points="60,150 62,151 62,149 60,150"/><polyline stroke="red" points="70,140 70,150"/>
    <polyline stroke="red" points="70,150 69,148 71,148 70,150"/><polyline stroke="red" points="70,130 70,140"/>
    <polyline stroke="red" points="70,140 69,138 71,138 70,140"/><polyline stroke="red" points="70,120 70,130"/>
    <polyline stroke="red" points="70,130 69,128 71,128 70,130"/><polyline stroke="red" points="70,110 70,120"/>
    <polyline stroke="red" points="70,120 69,118 71,118 70,120"/><polyline stroke="red" points="60,190 60,180"/>
    <polyline stroke="red" points="60,180 59,182 61,182 60,180"/><polyline stroke="red" points="60,180 70,180"/>
    <polyline stroke="red" points="70,180 68,181 68,179 70,180"/><polyline stroke="red" points="60,150 50,150"/>
    <polyline stroke="red" points="50,150 52,151 52,149 50,150"/><polyline stroke="red" points="50,190 60,190"/>
    <polyline stroke="red" points="60,190 58,191 58,189 60,190"/><polyline stroke="red" points="50,150 50,140"/>
    <polyline stroke="red" points="50,140 49,142 51,142 50,140"/><polyline stroke="red" points="50,140 40,140"/>
    <polyline stroke="red" points="40,140 42,141 42,139 40,140"/><polyline stroke="red" points="40,190 50,190"/>
    <polyline stroke="red" points="50,190 48,191 48,189 50,190"/><polyline stroke="red" points="40,180 40,190"/>
    <polyline stroke="red" points="40,190 39,188 41,188 40,190"/><polyline stroke="red" points="40,140 40,130"/>
    <polyline stroke="red" points="40,130 39,132 41,132 40,130"/><polyline stroke="red" points="40,130 40,120"/>
    <polyline stroke="red" points="40,120 39,122 41,122 40,120"/><polyline stroke="red" points="40,120 40,110"/>
    <polyline stroke="red" points="40,110 39,112 41,112 40,110"/><polyline stroke="red" points="40,110 30,110"/>
    <polyline stroke="red" points="30,110 32,111 32,109 30,110"/><polyline stroke="red" points="30,180 40,180"/>
    <polyline stroke="red" points="40,180 38,181 38,179 40,180"/><polyline stroke="red" points="30,170 30,180"/>
    <polyline stroke="red" points="30,180 29,178 31,178 30,180"/><polyline stroke="red" points="30,160 30,170"/>
    <polyline stroke="red" points="30,170 29,168 31,168 30,170"/><polyline stroke="red" points="30,110 20,110"/>
    <polyline stroke="red" points="20,110 22,111 22,109 20,110"/><polyline stroke="red" points="20,160 30,160"/>
    <polyline stroke="red" points="30,160 28,161 28,159 30,160"/><polyline stroke="red" points="20,150 20,160"/>
    <polyline stroke="red" points="20,160 19,158 21,158 20,160"/><polyline stroke="red" points="20,140 20,150"/>
    <polyline stroke="red" points="20,150 19,148 21,148 20,150"/><polyline stroke="red" points="20,110 10,110"/>
    <polyline stroke="red" points="10,110 12,111 12,109 10,110"/><polyline stroke="red" points="10,140 20,140"/>
    <polyline stroke="red" points="20,140 18,141 18,139 20,140"/><polyline stroke="red" points="10,130 10,140"/>
    <polyline stroke="red" points="10,140 9,138 11,138 10,140"/><polyline stroke="red" points="10,120 10,130"/>
    <polyline stroke="red" points="10,130 9,128 11,128 10,130"/><polyline stroke="red" points="10,110 0,110"/>
    <polyline stroke="red" points="0,110 2,111 2,109 0,110"/><polyline stroke="red" points="0,120 10,120"/>
    <polyline stroke="red" points="10,120 8,121 8,119 10,120"/><polyline stroke="red" points="0,110 0,120"/>
    <polyline stroke="red" points="0,120 -1,118 1,118 0,120"/><polyline stroke="red" fill="black" points="400,10 400,20 410,20 410,30 410,40 420,40 420,50 420,60 430,60 430,70 430,80 440,80 440,90 450,90 460,90 460,80 470,80 470,70 480,70 480,80 490,80 490,90 500,90 510,90 510,80 510,70 520,70 520,60 520,50 520,40 530,40 530,30 530,20 530,10 540,10 540,0 530,0 520,0 520,10 510,10 510,20 510,30 510,40 500,40 500,50 500,60 490,60 490,50 490,40 490,30 490,20 480,20 480,10 470,10 470,20 470,30 470,40 470,50 460,50 450,50 450,40 440,40 440,30 440,20 440,10 430,10 420,10 410,10 400,10 " />
<polyline stroke="red" fill="black" points="640,290 670,280 680,280 710,290 740,200 720,200 700,260 680,210 660,250 640,240 640,210 600,210 640,290 " />
</svg>